<svg xmlns="http://www.w3.org/2000/svg" width="18.46" height="16.68" viewBox="0 0 18.46 16.68"><title>obras</title><polygon points="7.09 2.83 15.16 10.9 15.16 11.12 7.09 11.12 7.09 2.83" fill="#ff7f40"/><polygon points="7.5 0 17.13 0 17.13 9.31 7.5 0" fill="#ff7f40"/><polygon points="0 9.5 0 12.11 2.19 12.11 2.19 16.68 4.65 16.68 4.65 9.5 0 9.5" fill="#ff7f40"/><polygon points="2.19 0.36 2.19 5.05 0 5.05 0 7.54 4.65 7.54 4.65 0.36 2.19 0.36" fill="#ff7f40"/><polygon points="6.7 13.08 6.7 16.68 9.26 16.68 9.26 15.6 15.91 15.6 15.91 16.68 18.46 16.68 18.46 13.08 6.7 13.08" fill="#ff7f40"/></svg>