<svg xmlns="http://www.w3.org/2000/svg" width="16.56" height="16.55" viewBox="0 0 16.56 16.55"><title>obrasmetalicas</title><polygon points="16.55 9.07 16.56 0.02 7.48 0 16.55 9.07" fill="#ff7f40"/><polygon points="4.56 0.02 1.06 0 1.05 6.37 4.69 6.37 5.95 6.37 5.95 7.62 5.95 10.63 8.95 10.63 10.2 10.63 10.2 11.88 10.2 15.5 16.56 15.52 16.56 12.02 4.56 0.02" fill="#ff7f40"/><polygon points="4.9 12.93 3.65 12.93 3.65 11.67 3.65 8.67 0 8.67 0 10.85 1.46 10.85 1.46 13.86 1.46 15.11 2.72 15.11 5.72 15.11 5.72 16.55 7.9 16.55 7.9 12.93 4.9 12.93" fill="#ff7f40"/></svg>