<svg xmlns="http://www.w3.org/2000/svg" width="214.99" height="238.14" viewBox="0 0 214.99 238.14"><title>logoblanco</title><polygon points="189.78 57.97 202.99 19.5 170.41 16.37 158.96 49.33 189.78 57.97" fill="#fff"/><polygon points="145.89 210.51 146.42 210.34 155.53 238.08 214.99 238.02 214.99 160.91 173.65 129.64 145.89 210.51" fill="#fff"/><polygon points="162.19 15.59 126.44 12.15 123.76 39.46 151.22 47.16 162.19 15.59" fill="#fff"/><polygon points="148.65 54.56 122.99 47.36 119.87 79.21 135.88 91.34 148.65 54.56" fill="#fff"/><path d="M963.13,659c-1.28-14.09-2.32-25.71-3.18-35.3L949.54,659" transform="translate(-852.01 -420.86)" fill="#fff"/><polygon points="0 0 22.73 11.14 24.31 11.58 11.52 1.11 0 0" fill="#fff"/><polygon points="136.41 238.1 147.09 238.09 141.88 222.19 136.41 238.1" fill="#fff"/><path d="M973,579.56l-6.79,23.05c1.46,16.7,3.45,38.92,5,56.37h8.74l9.56-27.84Z" transform="translate(-852.01 -420.86)" fill="#fff"/><polygon points="125.33 146.1 141.85 197.59 166.87 124.71 139.87 104.25 125.33 146.1" fill="#fff"/><polygon points="118.97 88.42 116.13 117.4 121.26 133.4 133.16 99.17 118.97 88.42" fill="#fff"/><polygon points="76.64 7.36 84.37 28.42 115.9 37.26 118.43 11.38 76.64 7.36" fill="#fff"/><polygon points="156.39 56.73 142.59 96.42 169.56 116.86 187.24 65.38 156.39 56.73" fill="#fff"/><polygon points="109.85 97.82 109.94 98.11 111.45 82.72 101.55 75.22 109.85 97.82" fill="#fff"/><polygon points="96.52 61.52 112.35 73.51 115.12 45.16 87.69 37.47 96.52 61.52" fill="#fff"/><polygon points="55.28 28.38 76.32 46.22 84.7 52.57 78.17 34.8 55.28 28.38" fill="#fff"/><polygon points="67.79 6.51 24.59 2.36 40.98 16.25 74.85 25.75 67.79 6.51" fill="#fff"/></svg>