<svg xmlns="http://www.w3.org/2000/svg" viewBox="0 0 822 194">
  <title>Asset 5</title>
  <g id="Layer_2" data-name="Layer 2">
    <g id="Layer_1-2" data-name="Layer 1">
      <g>
        <g>
          <polygon points="803.8 47.23 813.33 15.89 789.82 13.34 781.55 40.19 803.8 47.23" style="fill: #f48046"/>
          <polygon points="772.12 171.48 772.51 171.35 779.08 193.94 822 193.89 822 131.08 792.16 105.61 772.12 171.48" style="fill: #f48046"/>
          <polygon points="783.89 12.7 758.08 9.9 756.15 32.15 775.97 38.42 783.89 12.7" style="fill: #f48046"/>
          <polygon points="774.12 44.44 755.59 38.58 753.34 64.52 764.89 74.4 774.12 44.44" style="fill: #f48046"/>
          <path d="M747,194c-.92-11.47-1.68-20.94-2.3-28.75L737.22,194" style="fill: #f48046"/>
          <polygon points="666.82 0 683.23 9.07 684.37 9.43 675.14 0.9 666.82 0" style="fill: #f48046"/>
          <polygon points="765.28 193.96 772.99 193.95 769.23 181 765.28 193.96" style="fill: #f48046"/>
          <path d="M754.12,129.28l-4.9,18.77c1,13.61,2.49,31.71,3.64,45.92h6.3l6.9-22.68Z" style="fill: #f48046"/>
          <polygon points="757.28 119.02 769.21 160.96 787.26 101.59 767.78 84.93 757.28 119.02" style="fill: #f48046"/>
          <polygon points="752.69 72.02 750.64 95.64 754.35 108.67 762.93 80.78 752.69 72.02" style="fill: #f48046"/>
          <polygon points="722.14 6 727.72 23.15 750.48 30.35 752.3 9.27 722.14 6" style="fill: #f48046"/>
          <polygon points="779.7 46.21 769.74 78.55 789.21 95.19 801.97 53.26 779.7 46.21" style="fill: #f48046"/>
          <polygon points="746.11 79.69 746.17 79.92 747.26 67.38 740.12 61.27 746.11 79.69" style="fill: #f48046"/>
          <polygon points="736.49 50.12 747.91 59.88 749.92 36.79 730.11 30.52 736.49 50.12" style="fill: #f48046"/>
          <polygon points="706.72 23.12 721.9 37.65 727.96 42.82 723.25 28.35 706.72 23.12" style="fill: #f48046"/>
          <polygon points="715.75 5.31 684.57 1.93 696.4 13.24 720.85 20.98 715.75 5.31" style="fill: #f48046"/>
        </g>
        <g>
          <path d="M49.23,178.63v13.82H0V120.67H48.27v13.87H14.09V148.9H40.76v13.82H14.09v15.91Z" style="fill: #fff"/>
          <path d="M88.57,165.62a31.45,31.45,0,0,0-8.09-3.68A98.35,98.35,0,0,1,71,158.46a19,19,0,0,1-8.07-6.6q-3.35-4.61-3.34-11.67a19.87,19.87,0,0,1,6.38-14.86q6.38-6.17,16.58-6.16a29.09,29.09,0,0,1,7.78,1,26.29,26.29,0,0,1,6.15,2.4,33.78,33.78,0,0,1,4.21,2.8,14.22,14.22,0,0,1,2.59,2.48l.82,1-8.42,9.76a22.21,22.21,0,0,0-1.53-1.73A18.86,18.86,0,0,0,90,134.19a13.47,13.47,0,0,0-6.5-1.71A9.19,9.19,0,0,0,77,134.74a7.15,7.15,0,0,0-2.45,5.45A6.63,6.63,0,0,0,77.87,146a32.16,32.16,0,0,0,8,3.68q4.74,1.5,9.52,3.51a19.08,19.08,0,0,1,8.12,6.6,19.42,19.42,0,0,1,3.34,11.67q0,10-6.61,16.26T82.06,194a31.87,31.87,0,0,1-8.86-1.23,28.32,28.32,0,0,1-7-2.92,42.73,42.73,0,0,1-4.88-3.46,20.29,20.29,0,0,1-3-2.95l-1-1.25L65.68,173c.42.53,1,1.22,1.8,2.07a21.4,21.4,0,0,0,5.2,3.43,17.55,17.55,0,0,0,8.41,2.16q5.09,0,7.94-2.61a8.51,8.51,0,0,0,2.86-6.6A6.68,6.68,0,0,0,88.57,165.62Z" style="fill: #fff"/>
          <path d="M163.62,120.67v13.87H144.91v57.91h-14V134.54H112.11V120.67Z" style="fill: #fff"/>
          <path d="M174.88,120.67h29.05a21.16,21.16,0,0,1,16.13,6.83,23.65,23.65,0,0,1,6.38,16.75,25.48,25.48,0,0,1-1.24,8.06,22,22,0,0,1-2.9,6.05,28.68,28.68,0,0,1-3.41,4,12.74,12.74,0,0,1-3,2.25l-1.19.7,14.05,27.18h-15l-12.62-25.13H189v25.13H174.88Zm35,16.62a8.29,8.29,0,0,0-6.38-2.75H189v19h14.5a8.44,8.44,0,0,0,6.38-2.68,9.18,9.18,0,0,0,2.54-6.58A9.82,9.82,0,0,0,209.85,137.29Z" style="fill: #fff"/>
          <path d="M277.68,175.28a17.63,17.63,0,0,0,4.25-12.06V120.67H296v42.55q0,13.11-8.14,21.95a28,28,0,0,1-40.86,0q-8.14-8.83-8.14-21.95V120.67h14v42.55a17.64,17.64,0,0,0,4.28,12,13.24,13.24,0,0,0,20.52,0Z" style="fill: #fff"/>
          <path d="M351.72,120.65a27.6,27.6,0,0,1,7.66,3.58,53.51,53.51,0,0,1,5.31,4.2A23.11,23.11,0,0,1,368,132l1.05,1.51-8.92,9.76-.76-1.13a26.32,26.32,0,0,0-5.78-5.56,23.4,23.4,0,0,0-5.17-2.45,19.66,19.66,0,0,0-6.55-1.13,20,20,0,0,0-15.37,6.76,26,26,0,0,0,0,33.64,20,20,0,0,0,15.37,6.76,23,23,0,0,0,12.27-3.63,36.56,36.56,0,0,0,3.79-3,15.26,15.26,0,0,0,2.38-2.6l.73-1.06,8.47,9.76a18.87,18.87,0,0,1-1.12,1.58,42.9,42.9,0,0,1-3.34,3.46,35.82,35.82,0,0,1-5.54,4.35,34.55,34.55,0,0,1-7.73,3.43,32,32,0,0,1-9.91,1.55,33.37,33.37,0,0,1-25.32-11,39,39,0,0,1,0-52.88,33.42,33.42,0,0,1,25.32-11A32.24,32.24,0,0,1,351.72,120.65Z" style="fill: #fff"/>
          <path d="M429.22,120.67v13.87H410.51v57.91h-14V134.54H377.71V120.67Z" style="fill: #fff"/>
          <path d="M479.32,175.28a17.64,17.64,0,0,0,4.26-12.06V120.67h14v42.55q0,13.11-8.14,21.95a28,28,0,0,1-40.86,0q-8.14-8.83-8.14-21.95V120.67h14v42.55a17.63,17.63,0,0,0,4.27,12,13.24,13.24,0,0,0,20.52,0Z" style="fill: #fff"/>
          <path d="M509.32,120.67h29.05a21.15,21.15,0,0,1,16.13,6.83,23.65,23.65,0,0,1,6.38,16.75,25.48,25.48,0,0,1-1.24,8.06,22,22,0,0,1-2.9,6.05,28,28,0,0,1-3.41,4,12.94,12.94,0,0,1-3,2.25l-1.19.7,14,27.18h-15l-12.63-25.13H523.41v25.13H509.32Zm35,16.62a8.33,8.33,0,0,0-6.39-2.75h-14.5v19h14.5a8.48,8.48,0,0,0,6.39-2.68,9.22,9.22,0,0,0,2.53-6.58A9.86,9.86,0,0,0,544.3,137.29Z" style="fill: #fff"/>
          <path d="M587.57,175.53l-5.63,16.92h-15l25.8-71.78h15l25.81,71.78h-15l-5.63-16.92Zm12.68-36.89-8,23.58h16Z" style="fill: #fff"/>
          <path d="M670.7,165.62a31.37,31.37,0,0,0-8.1-3.68,98.35,98.35,0,0,1-9.52-3.48,19.13,19.13,0,0,1-8.07-6.6q-3.35-4.61-3.34-11.67a19.91,19.91,0,0,1,6.38-14.86q6.39-6.17,16.59-6.16a29.07,29.07,0,0,1,7.77,1,26.38,26.38,0,0,1,6.16,2.4,35.34,35.34,0,0,1,4.21,2.8,14.44,14.44,0,0,1,2.58,2.48l.83,1-8.42,9.76c-.37-.47-.88-1-1.54-1.73a18.36,18.36,0,0,0-4.14-2.72,13.46,13.46,0,0,0-6.49-1.71,9.2,9.2,0,0,0-6.48,2.26,7.14,7.14,0,0,0-2.44,5.45A6.62,6.62,0,0,0,660,146a32.32,32.32,0,0,0,8,3.68q4.74,1.5,9.52,3.51a19,19,0,0,1,8.12,6.6q3.35,4.61,3.34,11.67,0,10-6.61,16.26T664.18,194a31.85,31.85,0,0,1-8.85-1.23,28.4,28.4,0,0,1-7.05-2.92,41.7,41.7,0,0,1-4.87-3.46,19.8,19.8,0,0,1-3-2.95l-1-1.25L647.8,173c.43.53,1,1.22,1.81,2.07a21.27,21.27,0,0,0,5.19,3.43,17.56,17.56,0,0,0,8.42,2.16q5.07,0,7.94-2.61a8.54,8.54,0,0,0,2.86-6.6A6.7,6.7,0,0,0,670.7,165.62Z" style="fill: #fff"/>
          <path d="M668.67,52.34a22.24,22.24,0,0,1-2.86,5.23c-1.12,1.5-2.24,2.85-3.36,4.08a30.82,30.82,0,0,1-2.81,2.78l-1.24.94,14.13,18.86c.28-.44.65-1.12,1.1-2a36.41,36.41,0,0,0,1.76-5.61,34.93,34.93,0,0,0,1.1-8.76h5.73a44.45,44.45,0,0,1-.58,7.23,40.12,40.12,0,0,1-1.42,6.08q-.84,2.52-1.73,4.5c-.58,1.32-1,2.3-1.4,2.92l-.6,1a19.17,19.17,0,0,0,1,1.65A15.18,15.18,0,0,0,680,93.73a5.62,5.62,0,0,0,3.54,1.58l2.63-.48v6.27a10.78,10.78,0,0,1-3.11.47,8.21,8.21,0,0,1-3.42-.75,9.41,9.41,0,0,1-2.82-1.91,24.52,24.52,0,0,1-2.09-2.33,17.78,17.78,0,0,1-1.36-1.93l-.43-.76-.71.8c-.3.35-1,1-2,1.89A19.75,19.75,0,0,1,667,99a20.86,20.86,0,0,1-4.55,1.81,20.55,20.55,0,0,1-5.79.8,17.5,17.5,0,0,1-12.71-4.8,15.6,15.6,0,0,1-5-11.6,18.68,18.68,0,0,1,1.25-6.67,22.39,22.39,0,0,1,3-5.54,43.89,43.89,0,0,1,3.46-4,21.81,21.81,0,0,1,3-2.64l1.25-.9-1-1.08c-.42-.47-1.17-1.45-2.26-3A46.31,46.31,0,0,1,644.85,57a31.13,31.13,0,0,1-2.2-4.85,15,15,0,0,1,3.08-15.7,13.74,13.74,0,0,1,20-.09,14.24,14.24,0,0,1,4.1,10.18A15.64,15.64,0,0,1,668.67,52.34Zm-14.24,16.9c-.23.19-.57.48-1,.87s-1.23,1.19-2.35,2.38a35.52,35.52,0,0,0-3,3.58,23.8,23.8,0,0,0-2.35,4.29,12.12,12.12,0,0,0-1.08,4.81,9.29,9.29,0,0,0,3.19,7.38c2.13,1.84,5,2.76,8.75,2.76a15.41,15.41,0,0,0,6.61-1.44,14.18,14.18,0,0,0,4.42-2.9L669,89.51Zm-5.08-16.12a34.79,34.79,0,0,0,3.92,5.7l2,2.22,1-.8c.42-.35,1.13-1.06,2.14-2.12a32.57,32.57,0,0,0,2.65-3.21,22.49,22.49,0,0,0,2.11-3.77,10.18,10.18,0,0,0,1-4.1,8.59,8.59,0,0,0-2.4-6.18,8.44,8.44,0,0,0-12,0A8.58,8.58,0,0,0,647.37,47,12.78,12.78,0,0,0,649.35,53.12Z" style="fill: #b3b3b3"/>
          <path d="M6.63,32.1v69.47H0V32.1Z" style="fill: #fff"/>
          <path d="M86.69,32.1v69.47H80.07l-37-57.36v57.36H36.43V32.1h6.63l37,57.66V32.1Z" style="fill: #fff"/>
          <path d="M162.84,67v34.54h-6.62V92.44a26.48,26.48,0,0,1-8.17,6.66,22.92,22.92,0,0,1-21.18-.25,26.56,26.56,0,0,1-8.49-7.45,36.35,36.35,0,0,1-5.53-11.07,46.53,46.53,0,0,1,0-27,36.47,36.47,0,0,1,5.53-11.07,26.8,26.8,0,0,1,8.49-7.45,22.11,22.11,0,0,1,10.84-2.72,21.51,21.51,0,0,1,8.71,1.78,26.11,26.11,0,0,1,7.39,4.87,29.16,29.16,0,0,1,5.63,7.19,33.61,33.61,0,0,1,3.4,8.79h-6.62a22.17,22.17,0,0,0-3.36-6.8A25.09,25.09,0,0,0,148.1,43a19.8,19.8,0,0,0-5.36-3,15,15,0,0,0-5-1,16,16,0,0,0-6.58,1.63,20.68,20.68,0,0,0-6.67,5.06,28.76,28.76,0,0,0-5.17,8.69,33.64,33.64,0,0,0-2.08,12.41,33.64,33.64,0,0,0,2.08,12.41,28.83,28.83,0,0,0,5.17,8.68A20.54,20.54,0,0,0,131.13,93a16,16,0,0,0,6.58,1.64,14,14,0,0,0,5-1.09,22.39,22.39,0,0,0,5.36-3.08,24.75,24.75,0,0,0,4.76-4.91,22.83,22.83,0,0,0,3.36-6.6V74.38H140.07V67Z" style="fill: #f48046"/>
          <path d="M301.39,32.1v69.47h-6.62l-37-57.36v57.36h-6.63V32.1h6.63l37,57.66V32.1Z" style="fill: #fff"/>
          <path d="M342.85,32.1v69.47h-6.62V32.1Z" style="fill: #fff"/>
          <path d="M475.08,101.57,464.37,80.73a31.36,31.36,0,0,1-4.22.75,43.39,43.39,0,0,1-4.67.24H445.23v19.85H438.6V32.1h16.88q11.89,0,18.46,6.4t6.58,18.61A29.5,29.5,0,0,1,478,70a18.59,18.59,0,0,1-7.2,8.09l11.88,23.52Zm-19.6-27.19A50.38,50.38,0,0,0,461,74a15.32,15.32,0,0,0,6.13-2,14.3,14.3,0,0,0,5-5.16q2.09-3.48,2.09-9.73,0-6.06-2.09-9.58a15.07,15.07,0,0,0-5-5.31A16.44,16.44,0,0,0,461,39.94a37.18,37.18,0,0,0-5.49-.5H445.23V74.38Z" style="fill: #fff"/>
          <path d="M519.9,32.1v69.47h-6.62V32.1Zm-2.63-14.4-3.36,9.54h6.35l3.36-9.54Z" style="fill: #fff"/>
          <path d="M594.52,85.39H563.85l-5.62,16.18h-6.35L576,32.1h6.35l24.13,69.47h-6.34ZM592,78.05,579.19,41.23,566.4,78.05Z" style="fill: #fff"/>
          <g>
            <polygon points="185.78 63.86 185.78 71.2 192.4 71.2 222.98 71.2 222.98 63.86 192.4 63.86 185.78 63.86" style="fill: #f48046"/>
            <polygon points="192.4 39.44 228.33 39.44 228.33 32.1 185.78 32.1 185.78 39.44 192.4 39.44" style="fill: #f48046"/>
            <polygon points="185.78 94.23 185.78 101.57 228.33 101.57 228.33 94.23 192.4 94.23 185.78 94.23" style="fill: #f48046"/>
          </g>
          <g>
            <polygon points="372.29 63.86 372.29 71.2 378.9 71.2 409.48 71.2 409.48 63.86 378.9 63.86 372.29 63.86" style="fill: #fff"/>
            <polygon points="378.9 39.44 414.83 39.44 414.83 32.1 372.29 32.1 372.29 39.44 378.9 39.44" style="fill: #fff"/>
            <polygon points="372.29 94.23 372.29 101.57 414.83 101.57 414.83 94.23 378.9 94.23 372.29 94.23" style="fill: #fff"/>
          </g>
        </g>
      </g>
    </g>
  </g>
</svg>
