<svg xmlns="http://www.w3.org/2000/svg" viewBox="0 0 157.19 33.91">
  <title>Asset 12</title>
  <g id="Layer_2" data-name="Layer 2">
    <g id="Layer_1-2" data-name="Layer 1">
      <g>
        <g>
          <polygon points="153.71 8.26 155.53 2.78 151.03 2.33 149.45 7.02 153.71 8.26" style="fill: #f58147"/>
          <polygon points="147.65 29.97 147.72 29.95 148.98 33.9 157.19 33.89 157.19 22.91 151.48 18.46 147.65 29.97" style="fill: #f58147"/>
          <polygon points="149.9 2.22 144.96 1.73 144.59 5.62 148.38 6.71 149.9 2.22" style="fill: #f58147"/>
          <polygon points="148.03 7.77 144.49 6.74 144.06 11.28 146.27 13.01 148.03 7.77" style="fill: #f58147"/>
          <path d="M142.85,33.91c-.18-2-.32-3.66-.44-5l-1.44,5" style="fill: #f58147"/>
          <polygon points="127.51 0 130.65 1.59 130.87 1.65 129.1 0.16 127.51 0" style="fill: #f58147"/>
          <polygon points="146.34 33.9 147.81 33.9 147.09 31.64 146.34 33.9" style="fill: #f58147"/>
          <path d="M144.21,22.6l-.94,3.28c.2,2.38.48,5.54.69,8h1.21l1.32-4Z" style="fill: #f58147"/>
          <polygon points="144.81 20.8 147.09 28.13 150.54 17.76 146.82 14.84 144.81 20.8" style="fill: #f58147"/>
          <polygon points="143.93 12.59 143.54 16.72 144.25 19 145.89 14.12 143.93 12.59" style="fill: #f58147"/>
          <polygon points="138.09 1.05 139.16 4.05 143.51 5.3 143.86 1.62 138.09 1.05" style="fill: #f58147"/>
          <polygon points="149.1 8.08 147.19 13.73 150.92 16.64 153.36 9.31 149.1 8.08" style="fill: #f58147"/>
          <polygon points="142.67 13.93 142.69 13.97 142.9 11.78 141.53 10.71 142.67 13.93" style="fill: #f58147"/>
          <polygon points="140.84 8.76 143.02 10.47 143.4 6.43 139.62 5.33 140.84 8.76" style="fill: #f58147"/>
          <polygon points="135.14 4.04 138.05 6.58 139.2 7.49 138.3 4.96 135.14 4.04" style="fill: #f58147"/>
          <polygon points="136.87 0.93 130.91 0.34 133.17 2.31 137.84 3.67 136.87 0.93" style="fill: #f58147"/>
        </g>
        <g>
          <path d="M9.41,31.22v2.42H0V21.09H9.23v2.43H2.69V26H7.8v2.41H2.69v2.78Z" style="fill: #fff"/>
          <path d="M16.94,29a6.18,6.18,0,0,0-1.55-.64c-.61-.18-1.22-.38-1.82-.61A3.63,3.63,0,0,1,12,26.54a3.13,3.13,0,0,1-.64-2,3.3,3.3,0,0,1,1.22-2.59,4.6,4.6,0,0,1,3.17-1.08,6.14,6.14,0,0,1,1.49.18,5.39,5.39,0,0,1,1.17.42,6,6,0,0,1,.81.49,2.88,2.88,0,0,1,.49.43l.16.18-1.61,1.7-.29-.3a3.66,3.66,0,0,0-.8-.48A2.85,2.85,0,0,0,16,23.16a1.9,1.9,0,0,0-1.24.39,1.2,1.2,0,0,0-.46.95,1.14,1.14,0,0,0,.63,1,6.48,6.48,0,0,0,1.54.65c.6.17,1.21.38,1.82.61a3.52,3.52,0,0,1,1.55,1.16,3.12,3.12,0,0,1,.64,2,3.63,3.63,0,0,1-1.26,2.85,5.18,5.18,0,0,1-3.49,1.1A6.75,6.75,0,0,1,14,33.7a5.86,5.86,0,0,1-1.35-.52,9.4,9.4,0,0,1-.93-.6,3.58,3.58,0,0,1-.58-.52l-.2-.22,1.62-1.61c.08.1.2.22.34.37a4.11,4.11,0,0,0,1,.6,3.62,3.62,0,0,0,1.61.37A2.35,2.35,0,0,0,17,31.12,1.45,1.45,0,0,0,17.57,30,1.15,1.15,0,0,0,16.94,29Z" style="fill: #fff"/>
          <path d="M31.29,21.09v2.43H27.71V33.64H25V23.52H21.44V21.09Z" style="fill: #fff"/>
          <path d="M33.44,21.09H39a4.21,4.21,0,0,1,3.08,1.2,3.93,3.93,0,0,1,1.22,2.92,4.09,4.09,0,0,1-.24,1.41,3.62,3.62,0,0,1-.55,1.06,4.82,4.82,0,0,1-.65.69,2.51,2.51,0,0,1-.57.4l-.23.12,2.69,4.75H40.88l-2.42-4.39H36.14v4.39h-2.7ZM40.13,24a1.66,1.66,0,0,0-1.22-.48H36.14v3.31h2.77a1.65,1.65,0,0,0,1.22-.47,1.53,1.53,0,0,0,.48-1.15A1.64,1.64,0,0,0,40.13,24Z" style="fill: #fff"/>
          <path d="M53.1,30.64a3,3,0,0,0,.81-2.11V21.09H56.6v7.44A5.19,5.19,0,0,1,55,32.37a5.72,5.72,0,0,1-7.81,0,5.19,5.19,0,0,1-1.56-3.84V21.09h2.69v7.44a2.9,2.9,0,0,0,.82,2.1,2.62,2.62,0,0,0,2,.86A2.64,2.64,0,0,0,53.1,30.64Z" style="fill: #fff"/>
          <path d="M67.26,21.09a5.72,5.72,0,0,1,1.46.62,10,10,0,0,1,1,.74,4.11,4.11,0,0,1,.63.62l.2.26L68.87,25c0-.05-.09-.11-.15-.2a4.31,4.31,0,0,0-.41-.43,3.57,3.57,0,0,0-.69-.54,4.7,4.7,0,0,0-1-.43,4.13,4.13,0,0,0-1.25-.2,4,4,0,0,0-4.12,4.13,4,4,0,0,0,4.12,4.12,4.64,4.64,0,0,0,1.3-.19,4.44,4.44,0,0,0,1-.45,5.49,5.49,0,0,0,.73-.52,2.68,2.68,0,0,0,.45-.45l.14-.19,1.62,1.71-.21.27a6.9,6.9,0,0,1-.64.61,6.61,6.61,0,0,1-1.06.76,6.85,6.85,0,0,1-1.48.6A7,7,0,0,1,60.53,32a6.4,6.4,0,0,1,0-9.24,6.69,6.69,0,0,1,4.85-1.92A6.83,6.83,0,0,1,67.26,21.09Z" style="fill: #fff"/>
          <path d="M82.08,21.09v2.43H78.5V33.64H75.81V23.52H72.23V21.09Z" style="fill: #fff"/>
          <path d="M91.66,30.64a3,3,0,0,0,.81-2.11V21.09h2.69v7.44a5.19,5.19,0,0,1-1.56,3.84,5.72,5.72,0,0,1-7.81,0,5.19,5.19,0,0,1-1.56-3.84V21.09h2.69v7.44a2.94,2.94,0,0,0,.81,2.1,2.69,2.69,0,0,0,3.93,0Z" style="fill: #fff"/>
          <path d="M97.39,21.09H103a4.21,4.21,0,0,1,3.08,1.2,3.9,3.9,0,0,1,1.22,2.92,4.09,4.09,0,0,1-.23,1.41,3.62,3.62,0,0,1-.56,1.06,4.82,4.82,0,0,1-.65.69,2.51,2.51,0,0,1-.57.4l-.23.12,2.69,4.75h-2.87l-2.41-4.39h-2.33v4.39h-2.7ZM104.08,24a1.66,1.66,0,0,0-1.22-.48h-2.77v3.31h2.77a1.65,1.65,0,0,0,1.22-.47,1.51,1.51,0,0,0,.49-1.15A1.61,1.61,0,0,0,104.08,24Z" style="fill: #fff"/>
          <path d="M112.36,30.68l-1.08,3h-2.87l4.94-12.55h2.86l4.93,12.55h-2.87l-1.07-3Zm2.42-6.45-1.53,4.12h3Z" style="fill: #fff"/>
          <path d="M128.25,29a6,6,0,0,0-1.54-.64c-.61-.18-1.22-.38-1.82-.61a3.65,3.65,0,0,1-1.55-1.16,3.19,3.19,0,0,1-.64-2,3.33,3.33,0,0,1,1.22-2.59,4.62,4.62,0,0,1,3.17-1.08,6.08,6.08,0,0,1,1.49.18,5.5,5.5,0,0,1,1.18.42,5.83,5.83,0,0,1,.8.49,3,3,0,0,1,.5.43l.16.18-1.61,1.7-.3-.3a3.52,3.52,0,0,0-.79-.48,2.89,2.89,0,0,0-1.24-.29,1.88,1.88,0,0,0-1.24.39,1.21,1.21,0,0,0-.47.95,1.13,1.13,0,0,0,.64,1,6.31,6.31,0,0,0,1.54.65c.6.17,1.21.38,1.82.61a3.57,3.57,0,0,1,1.55,1.16,3.12,3.12,0,0,1,.64,2,3.6,3.6,0,0,1-1.27,2.85,5.13,5.13,0,0,1-3.48,1.1,6.83,6.83,0,0,1-1.7-.21,6,6,0,0,1-1.34-.52,7.52,7.52,0,0,1-.93-.6,3.19,3.19,0,0,1-.58-.52l-.2-.22,1.62-1.61a4.68,4.68,0,0,0,.34.37,4.2,4.2,0,0,0,1,.6,3.65,3.65,0,0,0,1.61.37,2.32,2.32,0,0,0,1.52-.45,1.43,1.43,0,0,0,.55-1.16A1.14,1.14,0,0,0,128.25,29Z" style="fill: #fff"/>
          <path d="M127.87,9.15a3.86,3.86,0,0,1-.55.91c-.22.26-.43.5-.64.72s-.4.37-.54.48l-.24.17,2.7,3.29a1.86,1.86,0,0,0,.21-.35,5.57,5.57,0,0,0,.34-1,5.65,5.65,0,0,0,.21-1.53h1.1a7.57,7.57,0,0,1-.11,1.26,6.69,6.69,0,0,1-.28,1.06,5.37,5.37,0,0,1-.33.79c-.11.23-.2.4-.26.51l-.12.17c0,.07.11.17.2.28a2.14,2.14,0,0,0,.48.45,1.07,1.07,0,0,0,.67.28l.51-.08v1.09a2.16,2.16,0,0,1-.6.08,1.64,1.64,0,0,1-.65-.13,2.05,2.05,0,0,1-.54-.33,5.09,5.09,0,0,1-.4-.41,2.37,2.37,0,0,1-.26-.34l-.08-.13-.14.14a4.85,4.85,0,0,1-.38.33,3.46,3.46,0,0,1-.63.42,3.76,3.76,0,0,1-.87.31,4,4,0,0,1-1.11.14,3.54,3.54,0,0,1-2.43-.84,2.6,2.6,0,0,1-.94-2,3.17,3.17,0,0,1,.23-1.17,3.94,3.94,0,0,1,.57-1,7.64,7.64,0,0,1,.67-.71,4.41,4.41,0,0,1,.57-.46l.24-.15-.19-.19-.43-.52a7.69,7.69,0,0,1-.54-.75,5.61,5.61,0,0,1-.42-.85,2.39,2.39,0,0,1-.19-.9,2.48,2.48,0,0,1,.78-1.84,2.63,2.63,0,0,1,1.91-.77,2.66,2.66,0,0,1,1.92.75,2.38,2.38,0,0,1,.78,1.78A2.56,2.56,0,0,1,127.87,9.15Zm-2.73,2.95a1.25,1.25,0,0,1-.19.15c-.09.07-.23.21-.45.42a6.34,6.34,0,0,0-.56.63,3.39,3.39,0,0,0-.45.75,1.93,1.93,0,0,0-.21.84,1.55,1.55,0,0,0,.61,1.29,2.65,2.65,0,0,0,1.67.48,3.34,3.34,0,0,0,1.27-.25,2.78,2.78,0,0,0,.84-.51l.26-.25Zm-1-2.82a5.77,5.77,0,0,0,.75,1l.39.39.18-.14c.08-.06.22-.19.41-.37s.36-.38.51-.56a4.12,4.12,0,0,0,.4-.66,1.55,1.55,0,0,0,.19-.72,1.45,1.45,0,0,0-.46-1.08,1.74,1.74,0,0,0-2.29,0,1.41,1.41,0,0,0-.46,1.08A2.11,2.11,0,0,0,124.17,9.28Z" style="fill: #b3b3b3"/>
          <path d="M1.27,5.61V17.75H0V5.61Z" style="fill: #fff"/>
          <path d="M16.58,5.61V17.75H15.31l-7.08-10v10H7V5.61H8.23l7.08,10.08V5.61Z" style="fill: #fff"/>
          <path d="M31.14,11.72v6H29.87V16.16a5.13,5.13,0,0,1-1.56,1.16,4.78,4.78,0,0,1-4,0A5,5,0,0,1,22.64,16,6.16,6.16,0,0,1,21.58,14a7,7,0,0,1-.38-2.36,7.08,7.08,0,0,1,.38-2.36,6.1,6.1,0,0,1,1.06-1.93,5,5,0,0,1,1.62-1.3,4.5,4.5,0,0,1,2.07-.48A4.43,4.43,0,0,1,28,5.92a5.05,5.05,0,0,1,1.41.85A5.46,5.46,0,0,1,30.49,8a5.66,5.66,0,0,1,.65,1.54H29.87a3.58,3.58,0,0,0-.64-1.19,4.59,4.59,0,0,0-.91-.86,3.79,3.79,0,0,0-1-.52,3.05,3.05,0,0,0-1-.17,3.23,3.23,0,0,0-1.25.28A3.85,3.85,0,0,0,23.8,8a5,5,0,0,0-1,1.51,5.56,5.56,0,0,0-.4,2.17,5.49,5.49,0,0,0,.4,2.17,5.13,5.13,0,0,0,1,1.52,3.82,3.82,0,0,0,1.28.88,3.26,3.26,0,0,0,1.25.29,2.86,2.86,0,0,0,1-.19A4.47,4.47,0,0,0,29.23,15a3.7,3.7,0,0,0,.64-1.15V13H26.79V11.72Z" style="fill: #f58147"/>
          <path d="M57.63,5.61V17.75H56.37l-7.08-10v10H48V5.61h1.27l7.08,10.08V5.61Z" style="fill: #fff"/>
          <path d="M65.56,5.61V17.75H64.3V5.61Z" style="fill: #fff"/>
          <path d="M90.85,17.75l-2-3.64a6.24,6.24,0,0,1-.81.13,8.45,8.45,0,0,1-.89,0h-2v3.47H83.87V5.61H87.1a5.12,5.12,0,0,1,3.53,1.12A4.12,4.12,0,0,1,91.89,10a4.8,4.8,0,0,1-.48,2.25A3.35,3.35,0,0,1,90,13.64l2.27,4.11ZM87.1,13q.44,0,1.05-.06a3.06,3.06,0,0,0,1.17-.36,2.47,2.47,0,0,0,1-.9,3,3,0,0,0,.4-1.7,3,3,0,0,0-.4-1.67,2.72,2.72,0,0,0-1-.93A3.32,3.32,0,0,0,88.15,7a7.42,7.42,0,0,0-1.05-.09h-2V13Z" style="fill: #fff"/>
          <path d="M99.42,5.61V17.75H98.15V5.61Zm-.51-2.52-.64,1.67h1.22l.64-1.67Z" style="fill: #fff"/>
          <path d="M113.69,14.93h-5.87l-1.07,2.82h-1.22l4.62-12.14h1.21L116,17.75h-1.22Zm-.49-1.29-2.45-6.43-2.44,6.43Z" style="fill: #fff"/>
          <g>
            <polygon points="35.53 11.16 35.53 12.45 36.79 12.45 42.64 12.45 42.64 11.16 36.79 11.16 35.53 11.16" style="fill: #f58147"/>
            <polygon points="36.79 6.89 43.66 6.89 43.66 5.61 35.53 5.61 35.53 6.89 36.79 6.89" style="fill: #f58147"/>
            <polygon points="35.53 16.47 35.53 17.75 43.66 17.75 43.66 16.47 36.79 16.47 35.53 16.47" style="fill: #f58147"/>
          </g>
          <g>
            <polygon points="71.19 11.16 71.19 12.45 72.46 12.45 78.3 12.45 78.3 11.16 72.46 11.16 71.19 11.16" style="fill: #fff"/>
            <polygon points="72.46 6.89 79.33 6.89 79.33 5.61 71.19 5.61 71.19 6.89 72.46 6.89" style="fill: #fff"/>
            <polygon points="71.19 16.47 71.19 17.75 79.33 17.75 79.33 16.47 72.46 16.47 71.19 16.47" style="fill: #fff"/>
          </g>
        </g>
      </g>
    </g>
  </g>
</svg>
