<svg xmlns="http://www.w3.org/2000/svg" width="18.99" height="18.33" viewBox="0 0 18.99 18.33"><title>logodiseno</title><polygon points="2.87 12.41 7.78 14.87 7.78 10.1 5.61 11.12 5.61 9.24 5.85 9.13 2.6 7.5 2.6 10.66 3.71 10.13 3.71 12.01 2.87 12.41" fill="#ff7f40"/><polygon points="15.45 12.11 15.45 10.22 16.38 10.66 16.38 7.5 13.16 9.11 13.36 9.2 13.36 11.08 11.2 10.09 11.19 10.1 11.19 14.87 16.1 12.41 15.45 12.11" fill="#ff7f40"/><polygon points="2.85 5.72 7.78 8.19 7.78 7.29 9.48 6.46 11.19 7.26 11.19 8.19 16.12 5.72 11.19 3.4 11.19 4.55 9.48 3.76 7.78 4.59 7.78 3.4 2.85 5.72" fill="#ff7f40"/><polygon points="10.9 18.32 18.99 18.32 18.99 14.28 10.9 18.32" fill="#ff7f40"/><polygon points="0 14.29 0 18.32 8.07 18.32 0 14.29" fill="#ff7f40"/><polygon points="18.99 3.81 18.99 0 10.88 0 18.99 3.81" fill="#ff7f40"/><polygon points="8.09 0 0 0 0 3.8 8.09 0" fill="#ff7f40"/></svg>